# node obj {x=0, y=0, z=0}
o node_0_0_0

v 0.0625 -0.25 0.0
v 0.0625 -0.25 0.1875
v 0.125 -0.25 0.1875
v 0.125 -0.25 0.0
v 0.125 -0.1875 0.0625
v 0.125 -0.1875 0.125
v 0.1875 -0.1875 0.125
v 0.1875 -0.1875 0.0625
v -0.0 -0.1875 0.0625
v -0.0 -0.1875 0.125
v 0.0625 -0.1875 0.125
v 0.0625 -0.1875 0.0625
v 0.1875 -0.0625 0.0625
v 0.1875 -0.0625 0.125
v 0.25 -0.0625 0.125
v 0.25 -0.0625 0.0625
v -0.0625 -0.0625 0.0625
v -0.0625 -0.0625 0.125
v -0.0 -0.0625 0.125
v -0.0 -0.0625 0.0625
v 0.0625 -0.5 0.0
v 0.0625 -0.5 0.1875
v 0.125 -0.5 0.1875
v 0.125 -0.5 0.0
v 0.125 -0.5 0.0625
v 0.125 -0.5 0.125
v 0.1875 -0.5 0.125
v 0.1875 -0.5 0.0625
v -0.0 -0.5 0.0625
v -0.0 -0.5 0.125
v 0.0625 -0.5 0.125
v 0.0625 -0.5 0.0625
v 0.1875 -0.25 0.0625
v 0.1875 -0.25 0.125
v 0.25 -0.25 0.125
v 0.25 -0.25 0.0625
v -0.0625 -0.25 0.0625
v -0.0625 -0.25 0.125
v -0.0 -0.25 0.125
v -0.0 -0.25 0.0625
v 0.0625 -0.25 0.0625
v 0.125 -0.25 0.0625
v 0.125 -0.25 0.125
v 0.0625 -0.25 0.125

vt 0.5 0.5625
vt 0.6875 0.5625
vt 0.6875 0.625
vt 0.5 0.625
vt 0.5625 0.625
vt 0.625 0.625
vt 0.625 0.6875
vt 0.5625 0.6875
vt 0.5625 0.5
vt 0.625 0.5
vt 0.625 0.5625
vt 0.5625 0.5625
vt 0.5625 0.6875
vt 0.625 0.6875
vt 0.625 0.75
vt 0.5625 0.75
vt 0.5625 0.4375
vt 0.625 0.4375
vt 0.625 0.5
vt 0.5625 0.5
vt 0.5 0.5625
vt 0.6875 0.5625
vt 0.6875 0.625
vt 0.5 0.625
vt 0.5625 0.625
vt 0.625 0.625
vt 0.625 0.6875
vt 0.5625 0.6875
vt 0.5625 0.5
vt 0.625 0.5
vt 0.625 0.5625
vt 0.5625 0.5625
vt 0.5625 0.6875
vt 0.625 0.6875
vt 0.625 0.75
vt 0.5625 0.75
vt 0.5625 0.4375
vt 0.625 0.4375
vt 0.625 0.5
vt 0.5625 0.5
vt 0.5 0.0
vt 0.5625 0.0
vt 0.5625 0.25
vt 0.5 0.25
vt 0.5625 0.0
vt 0.625 0.0
vt 0.625 0.25
vt 0.5625 0.25
vt 0.5625 0.25
vt 0.625 0.25
vt 0.625 0.3125
vt 0.5625 0.3125
vt 0.5625 0.25
vt 0.625 0.25
vt 0.625 0.4375
vt 0.5625 0.4375
vt 0.5625 0.3125
vt 0.625 0.3125
vt 0.625 0.4375
vt 0.5625 0.4375
vt 0.625 0.0
vt 0.6875 0.0
vt 0.6875 0.25
vt 0.625 0.25
vt 0.5 0.0
vt 0.5625 0.0
vt 0.5625 0.25
vt 0.5 0.25
vt 0.5625 0.0
vt 0.625 0.0
vt 0.625 0.25
vt 0.5625 0.25
vt 0.5625 0.25
vt 0.625 0.25
vt 0.625 0.4375
vt 0.5625 0.4375
vt 0.5625 0.25
vt 0.625 0.25
vt 0.625 0.3125
vt 0.5625 0.3125
vt 0.5625 0.3125
vt 0.625 0.3125
vt 0.625 0.4375
vt 0.5625 0.4375
vt 0.625 0.0
vt 0.6875 0.0
vt 0.6875 0.25
vt 0.625 0.25
vt 0.5625 0.0
vt 0.5625 0.25
vt 0.625 0.25
vt 0.625 0.0
vt 0.625 0.0
vt 0.625 0.3125
vt 0.6875 0.3125
vt 0.6875 0.0
vt 0.5 0.0
vt 0.5 0.3125
vt 0.5625 0.3125
vt 0.5625 0.0
vt 0.6875 0.25
vt 0.6875 0.4375
vt 0.75 0.4375
vt 0.75 0.25
vt 0.4375 0.25
vt 0.4375 0.4375
vt 0.5 0.4375
vt 0.5 0.25
vt 0.625 0.0
vt 0.625 0.3125
vt 0.6875 0.3125
vt 0.6875 0.0
vt 0.5 0.0
vt 0.5 0.3125
vt 0.5625 0.3125
vt 0.5625 0.0
vt 0.6875 0.25
vt 0.6875 0.4375
vt 0.75 0.4375
vt 0.75 0.25
vt 0.4375 0.25
vt 0.4375 0.4375
vt 0.5 0.4375
vt 0.5 0.25
vt 0.5625 0.0
vt 0.5625 0.25
vt 0.625 0.25
vt 0.625 0.0

vn 0 1 0
vn 0 -1 0
vn -1 0 0
vn 1 0 0
vn 0 0 -1
vn 0 0 1

g node_0_0_0
usemtl wool:red
s 1
f 1/1/1 2/2/1 3/3/1 4/4/1
usemtl wool:red
s 2
f 5/5/1 6/6/1 7/7/1 8/8/1
usemtl wool:red
s 3
f 9/9/1 10/10/1 11/11/1 12/12/1
usemtl wool:red
s 4
f 13/13/1 14/14/1 15/15/1 16/16/1
usemtl wool:red
s 5
f 17/17/1 18/18/1 19/19/1 20/20/1
usemtl wool:red
s 6
f 24/24/2 23/23/2 22/22/2 21/21/2
usemtl wool:red
s 7
f 28/28/2 27/27/2 26/26/2 25/25/2
usemtl wool:red
s 8
f 32/32/2 31/31/2 30/30/2 29/29/2
usemtl wool:red
s 9
f 36/36/2 35/35/2 34/34/2 33/33/2
usemtl wool:red
s 10
f 40/40/2 39/39/2 38/38/2 37/37/2
usemtl wool:red
s 11
f 21/41/3 32/42/3 41/43/3 1/44/3
usemtl wool:red
s 12
f 29/45/3 30/46/3 39/47/3 40/48/3
usemtl wool:red
s 13
f 42/49/3 43/50/3 6/51/3 5/52/3
usemtl wool:red
s 14
f 37/53/3 38/54/3 18/55/3 17/56/3
usemtl wool:red
s 15
f 8/57/3 7/58/3 14/59/3 13/60/3
usemtl wool:red
s 16
f 31/61/3 22/62/3 2/63/3 44/64/3
usemtl wool:red
s 17
f 4/68/4 42/67/4 25/66/4 24/65/4
usemtl wool:red
s 18
f 33/72/4 34/71/4 27/70/4 28/69/4
usemtl wool:red
s 19
f 16/76/4 15/75/4 35/74/4 36/73/4
usemtl wool:red
s 20
f 12/80/4 11/79/4 44/78/4 41/77/4
usemtl wool:red
s 21
f 20/84/4 19/83/4 10/82/4 9/81/4
usemtl wool:red
s 22
f 43/88/4 3/87/4 23/86/4 26/85/4
usemtl wool:red
s 23
f 21/89/5 1/90/5 4/91/5 24/92/5
usemtl wool:red
s 24
f 25/93/5 5/94/5 8/95/5 28/96/5
usemtl wool:red
s 25
f 29/97/5 9/98/5 12/99/5 32/100/5
usemtl wool:red
s 26
f 33/101/5 13/102/5 16/103/5 36/104/5
usemtl wool:red
s 27
f 37/105/5 17/106/5 20/107/5 40/108/5
usemtl wool:red
s 28
f 27/112/6 7/111/6 6/110/6 26/109/6
usemtl wool:red
s 29
f 31/116/6 11/115/6 10/114/6 30/113/6
usemtl wool:red
s 30
f 35/120/6 15/119/6 14/118/6 34/117/6
usemtl wool:red
s 31
f 39/124/6 19/123/6 18/122/6 38/121/6
usemtl wool:red
s 32
f 23/128/6 3/127/6 2/126/6 22/125/6


