# Blender 4.5.1 LTS
# www.blender.org
mtllib trapworks_spears_spear_spear.mtl
o node_0_0_0
v 0.062500 -0.437500 -0.500000
v 0.062500 -0.437500 -0.437500
v 0.125000 -0.437500 -0.437500
v 0.125000 -0.437500 -0.500000
v 0.125000 -0.437500 -0.375000
v 0.187500 -0.437500 -0.375000
v 0.187500 -0.437500 -0.437500
v 0.000000 -0.437500 -0.437500
v 0.000000 -0.437500 -0.375000
v 0.062500 -0.437500 -0.375000
v 0.062500 -0.375000 -0.437500
v 0.062500 -0.375000 -0.375000
v 0.125000 -0.375000 -0.375000
v 0.125000 -0.375000 -0.437500
v 0.125000 -0.375000 -0.250000
v 0.187500 -0.375000 -0.250000
v 0.187500 -0.375000 -0.375000
v 0.000000 -0.375000 -0.375000
v 0.000000 -0.375000 -0.250000
v 0.062500 -0.375000 -0.250000
v 0.062500 -0.312500 -0.375000
v 0.062500 -0.312500 -0.250000
v 0.125000 -0.312500 -0.250000
v 0.125000 -0.312500 -0.375000
v 0.125000 -0.312500 -0.187500
v 0.187500 -0.312500 -0.187500
v 0.187500 -0.312500 -0.250000
v 0.000000 -0.312500 -0.250000
v 0.000000 -0.312500 -0.187500
v 0.062500 -0.312500 -0.187500
v 0.062500 -0.250000 -0.250000
v 0.062500 -0.250000 -0.187500
v 0.125000 -0.250000 -0.187500
v 0.125000 -0.250000 -0.250000
v 0.125000 -0.250000 -0.062500
v 0.187500 -0.250000 -0.062500
v 0.187500 -0.250000 -0.187500
v 0.000000 -0.250000 -0.187500
v 0.000000 -0.250000 -0.062500
v 0.062500 -0.250000 -0.062500
v 0.062500 -0.187500 -0.187500
v 0.062500 -0.187500 -0.062500
v 0.125000 -0.187500 -0.062500
v 0.125000 -0.187500 -0.187500
v 0.125000 -0.187500 0.000000
v 0.187500 -0.187500 0.000000
v 0.187500 -0.187500 -0.062500
v 0.000000 -0.187500 -0.062500
v 0.000000 -0.187500 0.000000
v 0.062500 -0.187500 0.000000
v 0.062500 -0.125000 -0.062500
v 0.062500 -0.125000 0.000000
v 0.125000 -0.125000 0.000000
v 0.125000 -0.125000 -0.062500
v 0.125000 -0.125000 0.125000
v 0.187500 -0.125000 0.125000
v 0.187500 -0.125000 0.000000
v 0.000000 -0.125000 0.000000
v 0.000000 -0.125000 0.125000
v 0.062500 -0.125000 0.125000
v 0.062500 -0.062500 0.000000
v 0.062500 -0.062500 0.125000
v 0.125000 -0.062500 0.125000
v 0.125000 -0.062500 0.000000
v 0.125000 -0.062500 0.187500
v 0.187500 -0.062500 0.187500
v 0.187500 -0.062500 0.125000
v 0.000000 -0.062500 0.125000
v 0.000000 -0.062500 0.187500
v 0.062500 -0.062500 0.187500
v 0.062500 0.000000 0.125000
v 0.062500 0.000000 0.187500
v 0.125000 0.000000 0.187500
v 0.125000 0.000000 0.125000
v 0.125000 0.000000 0.250000
v 0.187500 0.000000 0.250000
v 0.187500 0.000000 0.187500
v 0.000000 0.000000 0.187500
v 0.000000 0.000000 0.250000
v 0.062500 0.000000 0.250000
v 0.062500 0.062500 0.187500
v 0.062500 0.062500 0.250000
v 0.125000 0.062500 0.250000
v 0.125000 0.062500 0.187500
v 0.125000 0.000000 0.312500
v 0.187500 0.000000 0.312500
v 0.000000 0.000000 0.312500
v 0.062500 0.000000 0.312500
v 0.062500 0.062500 0.312500
v 0.125000 0.062500 0.312500
v 0.125000 0.062500 0.375000
v 0.187500 0.062500 0.375000
v 0.187500 0.062500 0.312500
v 0.000000 0.062500 0.312500
v 0.000000 0.062500 0.375000
v 0.062500 0.062500 0.375000
v 0.062500 0.125000 0.312500
v 0.062500 0.125000 0.500000
v 0.125000 0.125000 0.500000
v 0.125000 0.125000 0.312500
v 0.062500 -0.500000 -0.500000
v 0.062500 -0.500000 -0.250000
v 0.125000 -0.500000 -0.250000
v 0.125000 -0.500000 -0.500000
v 0.125000 -0.500000 -0.437500
v 0.125000 -0.500000 -0.375000
v 0.187500 -0.500000 -0.375000
v 0.187500 -0.500000 -0.437500
v 0.000000 -0.500000 -0.437500
v 0.000000 -0.500000 -0.375000
v 0.062500 -0.500000 -0.375000
v 0.062500 -0.500000 -0.437500
v 0.125000 -0.437500 -0.250000
v 0.187500 -0.437500 -0.250000
v 0.000000 -0.437500 -0.250000
v 0.062500 -0.437500 -0.250000
v 0.062500 -0.437500 -0.187500
v 0.125000 -0.437500 -0.187500
v 0.125000 -0.375000 -0.187500
v 0.187500 -0.375000 -0.187500
v 0.000000 -0.375000 -0.187500
v 0.062500 -0.375000 -0.187500
v 0.062500 -0.375000 -0.062500
v 0.125000 -0.375000 -0.062500
v 0.125000 -0.312500 -0.062500
v 0.187500 -0.312500 -0.062500
v 0.000000 -0.312500 -0.062500
v 0.062500 -0.312500 -0.062500
v 0.062500 -0.312500 0.000000
v 0.125000 -0.312500 0.000000
v 0.125000 -0.250000 0.000000
v 0.187500 -0.250000 0.000000
v 0.000000 -0.250000 0.000000
v 0.062500 -0.250000 0.000000
v 0.062500 -0.250000 0.125000
v 0.125000 -0.250000 0.125000
v 0.125000 -0.187500 0.125000
v 0.187500 -0.187500 0.125000
v 0.000000 -0.187500 0.125000
v 0.062500 -0.187500 0.125000
v 0.062500 -0.187500 0.187500
v 0.125000 -0.187500 0.187500
v 0.125000 -0.125000 0.187500
v 0.187500 -0.125000 0.187500
v 0.000000 -0.125000 0.187500
v 0.062500 -0.125000 0.187500
v 0.062500 -0.125000 0.250000
v 0.125000 -0.125000 0.250000
v 0.125000 -0.062500 0.250000
v 0.187500 -0.062500 0.250000
v 0.000000 -0.062500 0.250000
v 0.062500 -0.062500 0.250000
v 0.062500 -0.125000 0.312500
v 0.125000 -0.125000 0.312500
v 0.125000 -0.062500 0.312500
v 0.187500 -0.062500 0.312500
v 0.000000 -0.062500 0.312500
v 0.062500 -0.062500 0.312500
v 0.062500 -0.062500 0.375000
v 0.125000 -0.062500 0.375000
v 0.125000 0.000000 0.375000
v 0.187500 0.000000 0.375000
v 0.000000 0.000000 0.375000
v 0.062500 0.000000 0.375000
v 0.062500 0.062500 0.500000
v 0.125000 0.062500 0.500000
vn -0.0000 1.0000 -0.0000
vn -0.0000 -1.0000 -0.0000
vn -1.0000 -0.0000 -0.0000
vn 1.0000 -0.0000 -0.0000
vn -0.0000 -0.0000 -1.0000
vn -0.0000 -0.0000 1.0000
vt 0.000000 0.562500
vt 0.062500 0.562500
vt 0.062500 0.625000
vt 0.000000 0.625000
vt 0.125000 0.625000
vt 0.125000 0.687500
vt 0.062500 0.687500
vt 0.062500 0.500000
vt 0.125000 0.500000
vt 0.125000 0.562500
vt 0.250000 0.625000
vt 0.250000 0.687500
vt 0.250000 0.500000
vt 0.250000 0.562500
vt 0.312500 0.625000
vt 0.312500 0.687500
vt 0.312500 0.500000
vt 0.312500 0.562500
vt 0.437500 0.625000
vt 0.437500 0.687500
vt 0.437500 0.500000
vt 0.437500 0.562500
vt 0.500000 0.625000
vt 0.500000 0.687500
vt 0.500000 0.500000
vt 0.500000 0.562500
vt 0.625000 0.625000
vt 0.625000 0.687500
vt 0.625000 0.500000
vt 0.625000 0.562500
vt 0.687500 0.625000
vt 0.687500 0.687500
vt 0.687500 0.500000
vt 0.687500 0.562500
vt 0.750000 0.625000
vt 0.750000 0.687500
vt 0.750000 0.500000
vt 0.750000 0.562500
vt 0.812500 0.625000
vt 0.812500 0.687500
vt 0.812500 0.500000
vt 0.812500 0.562500
vt 0.875000 0.625000
vt 0.875000 0.687500
vt 0.875000 0.500000
vt 0.875000 0.562500
vt 1.000000 0.562500
vt 1.000000 0.625000
vt 0.000000 0.000000
vt 0.062500 0.000000
vt 0.062500 0.062500
vt 0.000000 0.062500
vt 0.125000 0.000000
vt 0.125000 0.062500
vt 0.125000 0.125000
vt 0.062500 0.125000
vt 0.250000 0.000000
vt 0.250000 0.062500
vt 0.250000 0.125000
vt 0.250000 0.187500
vt 0.125000 0.187500
vt 0.312500 0.062500
vt 0.312500 0.125000
vt 0.312500 0.187500
vt 0.312500 0.250000
vt 0.250000 0.250000
vt 0.437500 0.125000
vt 0.437500 0.187500
vt 0.437500 0.250000
vt 0.437500 0.312500
vt 0.312500 0.312500
vt 0.500000 0.187500
vt 0.500000 0.250000
vt 0.500000 0.312500
vt 0.500000 0.375000
vt 0.437500 0.375000
vt 0.625000 0.250000
vt 0.625000 0.312500
vt 0.625000 0.375000
vt 0.625000 0.437500
vt 0.500000 0.437500
vt 0.687500 0.312500
vt 0.687500 0.375000
vt 0.687500 0.437500
vt 0.750000 0.375000
vt 0.750000 0.437500
vt 0.812500 0.375000
vt 0.812500 0.437500
vt 0.875000 0.437500
vt 0.562500 0.000000
vt 0.562500 0.062500
vt 0.625000 0.062500
vt 0.625000 0.000000
vt 0.687500 0.062500
vt 0.687500 0.000000
vt 0.500000 0.000000
vt 0.500000 0.062500
vt 0.562500 0.125000
vt 0.625000 0.125000
vt 0.687500 0.125000
vt 0.500000 0.125000
vt 0.562500 0.187500
vt 0.625000 0.187500
vt 0.687500 0.187500
vt 0.562500 0.250000
vt 0.687500 0.250000
vt 0.562500 0.312500
vt 0.562500 0.375000
vt 0.562500 0.437500
vt 0.562500 0.500000
vt 0.562500 0.562500
vt 0.562500 0.625000
s 1
g node_0_0_0_default:wood
usemtl default:wood
f 1/1/1 2/2/1 3/3/1 4/4/1
f 3/3/1 5/5/1 6/6/1 7/7/1
f 8/8/1 9/9/1 10/10/1 2/2/1
f 11/2/1 12/10/1 13/5/1 14/3/1
f 13/5/1 15/11/1 16/12/1 17/6/1
f 18/9/1 19/13/1 20/14/1 12/10/1
f 21/10/1 22/14/1 23/11/1 24/5/1
f 23/11/1 25/15/1 26/16/1 27/12/1
f 28/13/1 29/17/1 30/18/1 22/14/1
f 31/14/1 32/18/1 33/15/1 34/11/1
f 33/15/1 35/19/1 36/20/1 37/16/1
f 38/17/1 39/21/1 40/22/1 32/18/1
f 41/18/1 42/22/1 43/19/1 44/15/1
f 43/19/1 45/23/1 46/24/1 47/20/1
f 48/21/1 49/25/1 50/26/1 42/22/1
f 51/22/1 52/26/1 53/23/1 54/19/1
f 53/23/1 55/27/1 56/28/1 57/24/1
f 58/25/1 59/29/1 60/30/1 52/26/1
f 61/26/1 62/30/1 63/27/1 64/23/1
f 63/27/1 65/31/1 66/32/1 67/28/1
f 68/29/1 69/33/1 70/34/1 62/30/1
f 71/30/1 72/34/1 73/31/1 74/27/1
f 73/31/1 75/35/1 76/36/1 77/32/1
f 78/33/1 79/37/1 80/38/1 72/34/1
f 81/34/1 82/38/1 83/35/1 84/31/1
f 104/4/2 103/11/2 102/14/2 101/1/2
f 108/7/2 107/6/2 106/5/2 105/3/2
f 112/2/2 111/10/2 110/9/2 109/8/2
f 6/6/2 114/12/2 113/11/2 5/5/2
f 10/10/2 116/14/2 115/13/2 9/9/2
f 113/11/2 118/15/2 117/18/2 116/14/2
f 16/12/2 120/16/2 119/15/2 15/11/2
f 20/14/2 122/18/2 121/17/2 19/13/2
f 119/15/2 124/19/2 123/22/2 122/18/2
f 26/16/2 126/20/2 125/19/2 25/15/2
f 30/18/2 128/22/2 127/21/2 29/17/2
f 125/19/2 130/23/2 129/26/2 128/22/2
f 36/20/2 132/24/2 131/23/2 35/19/2
f 40/22/2 134/26/2 133/25/2 39/21/2
f 131/23/2 136/27/2 135/30/2 134/26/2
f 46/24/2 138/28/2 137/27/2 45/23/2
f 50/26/2 140/30/2 139/29/2 49/25/2
f 137/27/2 142/31/2 141/34/2 140/30/2
f 56/28/2 144/32/2 143/31/2 55/27/2
f 60/30/2 146/34/2 145/33/2 59/29/2
f 143/31/2 148/35/2 147/38/2 146/34/2
f 66/32/2 150/36/2 149/35/2 65/31/2
f 70/34/2 152/38/2 151/37/2 69/33/2
f 101/49/3 112/50/3 2/51/3 1/52/3
f 109/50/3 110/53/3 9/54/3 8/51/3
f 2/51/3 10/54/3 12/55/3 11/56/3
f 111/53/3 102/57/3 116/58/3 10/54/3
f 9/54/3 115/58/3 19/59/3 18/55/3
f 12/55/3 20/59/3 22/60/3 21/61/3
f 116/58/3 117/62/3 122/63/3 20/59/3
f 19/59/3 121/63/3 29/64/3 28/60/3
f 22/60/3 30/64/3 32/65/3 31/66/3
f 122/63/3 123/67/3 128/68/3 30/64/3
f 29/64/3 127/68/3 39/69/3 38/65/3
f 32/65/3 40/69/3 42/70/3 41/71/3
f 128/68/3 129/72/3 134/73/3 40/69/3
f 39/69/3 133/73/3 49/74/3 48/70/3
f 42/70/3 50/74/3 52/75/3 51/76/3
f 134/73/3 135/77/3 140/78/3 50/74/3
f 49/74/3 139/78/3 59/79/3 58/75/3
f 52/75/3 60/79/3 62/80/3 61/81/3
f 140/78/3 141/82/3 146/83/3 60/79/3
f 59/79/3 145/83/3 69/84/3 68/80/3
f 62/80/3 70/84/3 72/33/3 71/29/3
f 146/83/3 147/85/3 152/86/3 70/84/3
f 69/84/3 151/86/3 79/37/3 78/33/3
f 72/33/3 80/37/3 82/38/3 81/34/3
f 4/52/4 3/51/4 105/50/4 104/49/4
f 7/51/4 6/54/4 107/53/4 108/50/4
f 14/56/4 13/55/4 5/54/4 3/51/4
f 5/54/4 113/58/4 103/57/4 106/53/4
f 17/55/4 16/59/4 114/58/4 6/54/4
f 24/61/4 23/60/4 15/59/4 13/55/4
f 15/59/4 119/63/4 118/62/4 113/58/4
f 27/60/4 26/64/4 120/63/4 16/59/4
f 34/66/4 33/65/4 25/64/4 23/60/4
f 25/64/4 125/68/4 124/67/4 119/63/4
f 37/65/4 36/69/4 126/68/4 26/64/4
f 44/71/4 43/70/4 35/69/4 33/65/4
f 35/69/4 131/73/4 130/72/4 125/68/4
f 47/70/4 46/74/4 132/73/4 36/69/4
f 54/76/4 53/75/4 45/74/4 43/70/4
f 45/74/4 137/78/4 136/77/4 131/73/4
f 57/75/4 56/79/4 138/78/4 46/74/4
f 64/81/4 63/80/4 55/79/4 53/75/4
f 55/79/4 143/83/4 142/82/4 137/78/4
f 67/80/4 66/84/4 144/83/4 56/79/4
f 74/29/4 73/33/4 65/84/4 63/80/4
f 65/84/4 149/86/4 148/85/4 143/83/4
f 77/33/4 76/37/4 150/86/4 66/84/4
f 84/34/4 83/38/4 75/37/4 73/33/4
f 101/90/5 1/91/5 4/92/5 104/93/5
f 105/93/5 3/92/5 7/94/5 108/95/5
f 109/96/5 8/97/5 2/91/5 112/90/5
f 2/91/5 11/98/5 14/99/5 3/92/5
f 5/92/5 13/99/5 17/100/5 6/94/5
f 9/97/5 18/101/5 12/98/5 10/91/5
f 12/98/5 21/102/5 24/103/5 13/99/5
f 15/99/5 23/103/5 27/104/5 16/100/5
f 19/101/5 28/72/5 22/102/5 20/98/5
f 22/102/5 31/105/5 34/77/5 23/103/5
f 25/103/5 33/77/5 37/106/5 26/104/5
f 29/72/5 38/73/5 32/105/5 30/102/5
f 32/105/5 41/107/5 44/78/5 33/77/5
f 35/77/5 43/78/5 47/82/5 36/106/5
f 39/73/5 48/74/5 42/107/5 40/105/5
f 42/107/5 51/108/5 54/79/5 43/78/5
f 45/78/5 53/79/5 57/83/5 46/82/5
f 49/74/5 58/75/5 52/108/5 50/107/5
f 52/108/5 61/109/5 64/80/5 53/79/5
f 55/79/5 63/80/5 67/84/5 56/83/5
f 59/75/5 68/81/5 62/109/5 60/108/5
f 62/109/5 71/110/5 74/29/5 63/80/5
f 65/80/5 73/29/5 77/33/5 66/84/5
f 69/81/5 78/25/5 72/110/5 70/109/5
f 72/110/5 81/111/5 84/30/5 73/29/5
f 107/95/6 6/94/6 5/92/6 106/93/6
f 111/90/6 10/91/6 9/97/6 110/96/6
f 103/93/6 113/92/6 116/91/6 102/90/6
f 114/94/6 16/100/6 15/99/6 113/92/6
f 116/91/6 20/98/6 19/101/6 115/97/6
f 118/92/6 119/99/6 122/98/6 117/91/6
f 120/100/6 26/104/6 25/103/6 119/99/6
f 122/98/6 30/102/6 29/72/6 121/101/6
f 124/99/6 125/103/6 128/102/6 123/98/6
f 126/104/6 36/106/6 35/77/6 125/103/6
f 128/102/6 40/105/6 39/73/6 127/72/6
f 130/103/6 131/77/6 134/105/6 129/102/6
f 132/106/6 46/82/6 45/78/6 131/77/6
f 134/105/6 50/107/6 49/74/6 133/73/6
f 136/77/6 137/78/6 140/107/6 135/105/6
f 138/82/6 56/83/6 55/79/6 137/78/6
f 140/107/6 60/108/6 59/75/6 139/74/6
f 142/78/6 143/79/6 146/108/6 141/107/6
f 144/83/6 66/84/6 65/80/6 143/79/6
f 146/108/6 70/109/6 69/81/6 145/75/6
g node_0_0_0_wool:white
usemtl wool:white
f 75/35/1 85/39/1 86/40/1 76/36/1
f 79/37/1 87/41/1 88/42/1 80/38/1
f 82/38/1 89/42/1 90/39/1 83/35/1
f 90/39/1 91/43/1 92/44/1 93/40/1
f 94/41/1 95/45/1 96/46/1 89/42/1
f 97/42/1 98/47/1 99/48/1 100/39/1
f 148/35/2 154/39/2 153/42/2 147/38/2
f 150/36/2 156/40/2 155/39/2 149/35/2
f 152/38/2 158/42/2 157/41/2 151/37/2
f 155/39/2 160/43/2 159/46/2 158/42/2
f 86/40/2 162/44/2 161/43/2 85/39/2
f 88/42/2 164/46/2 163/45/2 87/41/2
f 91/43/2 166/48/2 165/47/2 96/46/2
f 147/85/3 153/87/3 158/88/3 152/86/3
f 151/86/3 157/88/3 87/41/3 79/37/3
f 80/37/3 88/41/3 89/42/3 82/38/3
f 158/88/3 159/89/3 164/45/3 88/41/3
f 87/41/3 163/45/3 95/46/3 94/42/3
f 89/42/3 165/47/3 98/48/3 97/39/3
f 149/86/4 155/88/4 154/87/4 148/85/4
f 76/37/4 86/41/4 156/88/4 150/86/4
f 83/38/4 90/42/4 85/41/4 75/37/4
f 85/41/4 161/45/4 160/89/4 155/88/4
f 93/42/4 92/46/4 162/45/4 86/41/4
f 100/39/4 99/48/4 166/47/4 90/42/4
f 85/29/5 90/30/5 93/34/5 86/33/5
f 87/25/5 94/26/5 89/111/5 88/110/5
f 89/111/5 97/112/5 100/27/5 90/30/5
f 154/79/6 155/80/6 158/109/6 153/108/6
f 156/84/6 86/33/6 85/29/6 155/80/6
f 158/109/6 88/110/6 87/25/6 157/81/6
f 160/80/6 91/30/6 96/111/6 159/109/6
f 162/33/6 92/34/6 91/30/6 161/29/6
f 164/110/6 96/111/6 95/26/6 163/25/6
f 166/30/6 99/27/6 98/112/6 165/111/6
o node_0_0_0.001
v 0.062500 -0.250000 0.000000
v 0.062500 -0.250000 0.187500
v 0.125000 -0.250000 0.187500
v 0.125000 -0.250000 0.000000
v 0.125000 -0.187500 0.062500
v 0.125000 -0.187500 0.125000
v 0.187500 -0.187500 0.125000
v 0.187500 -0.187500 0.062500
v 0.000000 -0.187500 0.062500
v 0.000000 -0.187500 0.125000
v 0.062500 -0.187500 0.125000
v 0.062500 -0.187500 0.062500
v 0.187500 -0.062500 0.062500
v 0.187500 -0.062500 0.125000
v 0.250000 -0.062500 0.125000
v 0.250000 -0.062500 0.062500
v -0.062500 -0.062500 0.062500
v -0.062500 -0.062500 0.125000
v 0.000000 -0.062500 0.125000
v 0.000000 -0.062500 0.062500
v 0.062500 -0.500000 0.000000
v 0.062500 -0.500000 0.187500
v 0.125000 -0.500000 0.187500
v 0.125000 -0.500000 0.000000
v 0.125000 -0.500000 0.062500
v 0.125000 -0.500000 0.125000
v 0.187500 -0.500000 0.125000
v 0.187500 -0.500000 0.062500
v 0.000000 -0.500000 0.062500
v 0.000000 -0.500000 0.125000
v 0.062500 -0.500000 0.125000
v 0.062500 -0.500000 0.062500
v 0.187500 -0.250000 0.062500
v 0.187500 -0.250000 0.125000
v 0.250000 -0.250000 0.125000
v 0.250000 -0.250000 0.062500
v -0.062500 -0.250000 0.062500
v -0.062500 -0.250000 0.125000
v 0.000000 -0.250000 0.125000
v 0.000000 -0.250000 0.062500
v 0.062500 -0.250000 0.062500
v 0.125000 -0.250000 0.062500
v 0.125000 -0.250000 0.125000
v 0.062500 -0.250000 0.125000
vn -0.0000 1.0000 -0.0000
vn -0.0000 -1.0000 -0.0000
vn -1.0000 -0.0000 -0.0000
vn 1.0000 -0.0000 -0.0000
vn -0.0000 -0.0000 -1.0000
vn -0.0000 -0.0000 1.0000
vt 0.500000 0.562500
vt 0.687500 0.562500
vt 0.687500 0.625000
vt 0.500000 0.625000
vt 0.562500 0.625000
vt 0.625000 0.625000
vt 0.625000 0.687500
vt 0.562500 0.687500
vt 0.562500 0.500000
vt 0.625000 0.500000
vt 0.625000 0.562500
vt 0.562500 0.562500
vt 0.625000 0.750000
vt 0.562500 0.750000
vt 0.562500 0.437500
vt 0.625000 0.437500
vt 0.500000 0.000000
vt 0.562500 0.000000
vt 0.562500 0.250000
vt 0.500000 0.250000
vt 0.625000 0.000000
vt 0.625000 0.250000
vt 0.625000 0.312500
vt 0.562500 0.312500
vt 0.687500 0.000000
vt 0.687500 0.250000
vt 0.687500 0.312500
vt 0.500000 0.312500
vt 0.687500 0.437500
vt 0.750000 0.437500
vt 0.750000 0.250000
vt 0.437500 0.250000
vt 0.437500 0.437500
vt 0.500000 0.437500
s 1
g node_0_0_0.001_wool:red
usemtl wool:red
f 167/113/7 168/114/7 169/115/7 170/116/7
f 171/117/7 172/118/7 173/119/7 174/120/7
f 175/121/7 176/122/7 177/123/7 178/124/7
f 179/120/7 180/119/7 181/125/7 182/126/7
f 183/127/7 184/128/7 185/122/7 186/121/7
f 190/116/8 189/115/8 188/114/8 187/113/8
f 194/120/8 193/119/8 192/118/8 191/117/8
f 198/124/8 197/123/8 196/122/8 195/121/8
f 202/126/8 201/125/8 200/119/8 199/120/8
f 206/121/8 205/122/8 204/128/8 203/127/8
f 187/129/9 198/130/9 207/131/9 167/132/9
f 195/130/9 196/133/9 205/134/9 206/131/9
f 208/131/9 209/134/9 172/135/9 171/136/9
f 203/131/9 204/134/9 184/128/9 183/127/9
f 174/136/9 173/135/9 180/128/9 179/127/9
f 197/133/9 188/137/9 168/138/9 210/134/9
f 170/132/10 208/131/10 191/130/10 190/129/10
f 199/131/10 200/134/10 193/133/10 194/130/10
f 182/127/10 181/128/10 201/134/10 202/131/10
f 178/136/10 177/135/10 210/134/10 207/131/10
f 186/127/10 185/128/10 176/135/10 175/136/10
f 209/134/10 169/138/10 189/137/10 192/133/10
f 187/130/11 167/131/11 170/134/11 190/133/11
f 191/133/11 171/135/11 174/139/11 194/137/11
f 195/129/11 175/140/11 178/136/11 198/130/11
f 199/138/11 179/141/11 182/142/11 202/143/11
f 203/144/11 183/145/11 186/146/11 206/132/11
f 193/137/12 173/139/12 172/135/12 192/133/12
f 197/130/12 177/136/12 176/140/12 196/129/12
f 201/143/12 181/142/12 180/141/12 200/138/12
f 205/132/12 185/146/12 184/145/12 204/144/12
f 189/133/12 169/134/12 168/131/12 188/130/12
